<svg xmlns="http://www.w3.org/2000/svg" fill="none" viewBox="0 0 16 16" id="Chat--Streamline-Cryptocurrency" height="16" width="16"><desc>Chat Streamline Icon: https://streamlinehq.com</desc><path fill="#36d2af" d="M8 16c4.4183 0 8 -3.5817 8 -8 0 -4.41828 -3.5817 -8 -8 -8C3.58172 0 0 3.58172 0 8c0 4.4183 3.58172 8 8 8Z" stroke-width="0.5"></path><path fill="#ffffff" fill-rule="evenodd" d="M8.14 11.6625c0.35185 -0.02445 0.70065 -0.08135 1.042 -0.17 0.42125 0.12855 0.8666 0.15765 1.301 0.085 0.0172 -0.00275 0.0346 -0.0041 0.052 -0.004 0.155 0 0.3585 0.09 0.655 0.28v-0.3125c0.00005 -0.05405 0.0145 -0.10715 0.0418 -0.1538 0.02735 -0.04665 0.06655 -0.0852 0.1137 -0.1117 0.129 -0.073 0.249 -0.157 0.3585 -0.2495 0.432 -0.366 0.676 -0.854 0.676 -1.371 0 -0.1735 -0.0275 -0.342 -0.0795 -0.503 0.1305 -0.2435 0.236 -0.4995 0.3135 -0.765 0.2506 0.3755 0.38485 0.81655 0.386 1.268 0 0.7025 -0.327 1.3575 -0.8925 1.8365 -0.0944 0.0799 -0.19375 0.1537 -0.2975 0.221v0.7305c0 0.2515 -0.29 0.396 -0.4945 0.2465 -0.1934 -0.14455 -0.3936 -0.2797 -0.6 -0.405 -0.0591 -0.03535 -0.1206 -0.0666 -0.184 -0.0935 -0.17 0.0255 -0.344 0.0385 -0.5195 0.0385 -0.706 0 -1.3585 -0.2115 -1.872 -0.567Zm-3.733 -1.461C3.515 9.445 3 8.4145 3 7.31c0 -2.2565 2.129 -4.06 4.7285 -4.06 2.6 0 4.729 1.8035 4.729 4.06 0 2.257 -2.1295 4.0605 -4.729 4.0605 -0.292 0 -0.581 -0.0225 -0.864 -0.0675 -0.1225 0.029 -0.612 0.32 -1.3175 0.835 -0.2555 0.187 -0.618 0.0065 -0.618 -0.308v-1.246c-0.1827 -0.1152 -0.357125 -0.243 -0.522 -0.3825Zm2.4745 0.333c0.0215 0 0.0435 0.0015 0.065 0.005 0.255 0.043 0.517 0.065 0.782 0.065 2.196 0 3.9535 -1.489 3.9535 -3.2945 0 -1.805 -1.7575 -3.294 -3.9535 -3.294 -2.195 0 -3.9535 1.489 -3.9535 3.294 0 0.873 0.4105 1.695 1.1365 2.31 0.1825 0.154 0.383 0.294 0.598 0.416 0.1205 0.068 0.195 0.195 0.195 0.332v0.7185c0.558 -0.3745 0.925 -0.552 1.177 -0.552Zm-1.1685 -2.458c-0.3425 0 -0.62 -0.275 -0.62 -0.613 0 -0.3385 0.2775 -0.613 0.62 -0.613 0.3425 0 0.62 0.2745 0.62 0.613 0 0.3385 -0.2775 0.613 -0.62 0.613Zm2.0155 0c-0.3425 0 -0.62 -0.275 -0.62 -0.613 0 -0.3385 0.2775 -0.613 0.62 -0.613 0.3425 0 0.62 0.2745 0.62 0.613 0 0.3385 -0.2775 0.613 -0.62 0.613Zm2.0155 0c-0.3425 0 -0.62 -0.275 -0.62 -0.613 0 -0.3385 0.2775 -0.613 0.62 -0.613 0.3425 0 0.62 0.2745 0.62 0.613 0 0.3385 -0.2775 0.613 -0.62 0.613Z" clip-rule="evenodd" stroke-width="0.5"></path></svg>